<svg width="58" height="58" viewBox="0 0 58 58" fill="none" xmlns="http://www.w3.org/2000/svg">
<g clip-path="url(#clip0_255_375)">
<path d="M2.44046 35.5557C2.56903 35.5554 2.69759 35.555 2.83005 35.5546C2.97134 35.5548 3.11263 35.555 3.2582 35.5552C3.40979 35.5549 3.56138 35.5547 3.71297 35.5544C4.12994 35.5537 4.54691 35.5537 4.96388 35.5538C5.41348 35.5539 5.86308 35.5532 6.31268 35.5527C7.19393 35.5518 8.07518 35.5514 8.95644 35.5514C9.67317 35.5513 10.3899 35.5511 11.1066 35.5507C13.1395 35.5497 15.1724 35.5492 17.2053 35.5493C17.3149 35.5493 17.4246 35.5493 17.5375 35.5493C17.6473 35.5493 17.7571 35.5493 17.8702 35.5493C19.6469 35.5494 21.4237 35.5483 23.2005 35.5467C25.0256 35.5451 26.8508 35.5443 28.676 35.5444C29.7003 35.5444 30.7247 35.5441 31.749 35.5429C32.6217 35.5418 33.4945 35.5416 34.3672 35.5424C34.812 35.5427 35.2568 35.5428 35.7017 35.5418C36.1099 35.5409 36.5182 35.541 36.9265 35.542C37.1419 35.5423 37.3574 35.5414 37.5729 35.5405C40.8108 35.5534 43.6748 36.6718 46.0062 38.9263C48.1236 41.0631 49.1971 43.9939 49.1842 46.9798C49.1403 50.0976 47.8446 52.8552 45.6522 55.0547C43.2529 57.2832 40.3476 58.1242 37.13 58.0429C34.2014 57.9131 31.5204 56.5488 29.5128 54.4175C27.7644 52.3542 26.7069 49.9246 26.6847 47.217C26.6836 47.1168 26.6824 47.0165 26.6812 46.9132C26.6905 46.2349 26.7911 45.7397 27.2608 45.2187C27.9214 44.6747 28.4093 44.4627 29.2765 44.4846C29.9295 44.5633 30.4038 44.8652 30.8549 45.3337C31.2936 45.897 31.3456 46.4824 31.4217 47.1763C31.649 49.1665 32.3703 50.6802 33.9046 51.9956C35.3147 53.041 36.9938 53.4865 38.7279 53.2847C40.4528 52.9997 41.919 52.2074 43.0468 50.8633C44.1278 49.3393 44.6209 47.598 44.3535 45.7395C43.9795 43.8872 43.0104 42.4376 41.4776 41.345C40.0917 40.4749 38.7022 40.2935 37.0967 40.2996C36.944 40.2994 36.7914 40.299 36.6387 40.2986C36.2219 40.2977 35.8052 40.2982 35.3885 40.2989C34.938 40.2994 34.4875 40.2986 34.037 40.2979C33.2571 40.297 32.4773 40.2968 31.6975 40.297C30.569 40.2974 29.4406 40.2961 28.3121 40.2942C26.4798 40.2913 24.6474 40.289 22.8151 40.2875C22.7055 40.2874 22.5959 40.2873 22.483 40.2872C20.9272 40.286 19.3714 40.2854 17.8155 40.285C17.7059 40.285 17.5963 40.285 17.4833 40.285C17.3738 40.2849 17.2643 40.2849 17.1515 40.2849C15.3255 40.2845 13.4996 40.2823 11.6736 40.2787C10.548 40.2766 9.42234 40.2759 8.29669 40.2771C7.52565 40.2778 6.75462 40.2769 5.98358 40.2747C5.53883 40.2735 5.0941 40.2731 4.64935 40.2746C4.24196 40.2759 3.83464 40.2752 3.42726 40.2728C3.21063 40.2721 2.994 40.2736 2.77737 40.2752C1.88386 40.2673 1.25044 40.1654 0.559661 39.5559C0.48234 39.458 0.48234 39.458 0.403457 39.3581C0.349865 39.2926 0.296273 39.227 0.241058 39.1595C-0.146055 38.5821 -0.0682708 37.8183 -0.000107456 37.1562C0.238099 36.4843 0.733038 36.01 1.35927 35.6836C1.72491 35.5697 2.05854 35.556 2.44046 35.5557Z" fill="black"/>
<path d="M54.2148 11.5684C56.3305 13.3944 57.7972 16.0634 58.0341 18.8693C58.0492 19.2756 58.053 19.6796 58.0495 20.0862C58.0486 20.2297 58.0476 20.3732 58.0466 20.521C57.9939 23.4576 56.7852 26.1153 54.7148 28.207C52.5039 30.2551 49.7614 31.3222 46.7508 31.311C46.5941 31.3117 46.4374 31.3125 46.2807 31.3134C45.8548 31.3154 45.429 31.3154 45.0031 31.315C44.5421 31.3149 44.081 31.3168 43.6199 31.3184C42.7187 31.3212 41.8175 31.3222 40.9163 31.3224C40.1838 31.3225 39.4513 31.3232 38.7187 31.3243C36.6395 31.3273 34.5603 31.3289 32.4811 31.3286C32.3692 31.3286 32.2574 31.3286 32.1421 31.3286C32.0302 31.3286 31.9182 31.3285 31.8028 31.3285C29.9854 31.3284 28.1681 31.3316 26.3507 31.3364C24.4823 31.3413 22.614 31.3437 20.7456 31.3434C19.6976 31.3433 18.6495 31.3442 17.6015 31.3478C16.7099 31.3509 15.8183 31.3517 14.9267 31.3494C14.4721 31.3483 14.0175 31.3482 13.5629 31.3512C13.1463 31.3539 12.7299 31.3534 12.3134 31.3504C12.0921 31.3496 11.8708 31.3522 11.6496 31.3549C10.7594 31.3444 10.1825 31.1918 9.51557 30.5859C8.99622 29.9779 8.98017 29.3861 9.00448 28.5982C9.09145 28.0113 9.30918 27.5925 9.74213 27.1875C10.4686 26.6496 11.1165 26.6705 12.0003 26.6771C12.1483 26.6764 12.2964 26.6757 12.4489 26.675C12.8587 26.6731 13.2684 26.6741 13.6782 26.6755C14.1206 26.6765 14.563 26.6749 15.0054 26.6737C15.7719 26.6718 16.5383 26.6715 17.3048 26.6724C18.4147 26.6736 19.5246 26.6721 20.6345 26.6698C22.4376 26.6663 24.2408 26.6646 26.0439 26.6642C26.2057 26.6642 26.2057 26.6642 26.3708 26.6641C26.4788 26.6641 26.5868 26.6641 26.6981 26.6641C28.2275 26.6637 29.7569 26.663 31.2862 26.6617C31.3937 26.6616 31.5013 26.6615 31.612 26.6614C33.4075 26.6598 35.203 26.6574 36.9985 26.6544C38.1049 26.6527 39.2113 26.6519 40.3177 26.6523C41.0767 26.6525 41.8356 26.652 42.5946 26.6508C43.0319 26.6502 43.4691 26.65 43.9064 26.6507C44.3818 26.6516 44.8571 26.6506 45.3325 26.6496C45.4688 26.6501 45.6052 26.6506 45.7456 26.6512C47.9671 26.6414 49.8298 26.2083 51.4832 24.6594C52.6776 23.4171 53.312 21.8462 53.2917 20.1286C53.2903 19.9729 53.2903 19.9729 53.2888 19.814C53.2472 18.1345 52.6105 16.6949 51.4509 15.477C50.0837 14.1864 48.3361 13.525 46.4607 13.5658C44.6716 13.7062 43.056 14.4871 41.8636 15.8319C40.8492 17.1141 40.3788 18.4472 40.2856 20.0649C40.2375 20.6697 40.1532 21.159 39.7617 21.6367C39.0422 22.2411 38.4397 22.4926 37.496 22.4297C36.7013 22.2732 36.251 21.8365 35.7968 21.1836C35.0909 19.8331 35.7346 17.7173 36.165 16.3408C37.1544 13.558 39.1611 11.2846 41.795 9.96474C45.9764 7.98324 50.6675 8.65881 54.2148 11.5684Z" fill="black"/>
<path d="M24.6952 0.339828C24.7651 0.361732 24.8349 0.383636 24.9069 0.406204C26.7972 1.00829 28.2941 1.98887 29.6796 3.39842C29.8088 3.52787 29.8088 3.52787 29.9407 3.65994C32.1447 5.99692 32.8341 9.02293 32.7531 12.1401C32.6216 14.9644 31.191 17.6429 29.1406 19.5481C26.5465 21.7357 23.6861 22.4662 20.3695 22.4608C20.1675 22.4613 19.9654 22.4619 19.7633 22.4625C19.2194 22.464 18.6756 22.4641 18.1317 22.4638C17.6764 22.4637 17.2212 22.4643 16.7659 22.4648C15.6922 22.4661 14.6186 22.4661 13.5449 22.4654C12.4386 22.4647 11.3323 22.4661 10.226 22.4686C9.27375 22.4706 8.32148 22.4712 7.3692 22.4709C6.80146 22.4707 6.23372 22.471 5.66598 22.4725C5.1329 22.474 4.59984 22.4737 4.06677 22.4723C3.87146 22.472 3.67614 22.4723 3.48084 22.4732C3.21379 22.4744 2.94683 22.4735 2.67978 22.4721C2.53054 22.4721 2.38129 22.4721 2.22752 22.4721C1.45634 22.3933 0.896204 22.0672 0.339733 21.5234C-0.135551 20.8897 -0.0687303 20.1278 -0.000110362 19.3711C0.19013 18.7556 0.607681 18.3674 1.1327 18.0117C1.60916 17.7766 2.00521 17.7568 2.53343 17.7566C2.61637 17.7563 2.6993 17.756 2.78475 17.7556C3.06212 17.7548 3.33947 17.7555 3.61684 17.7562C3.81599 17.7559 4.01514 17.7555 4.21429 17.755C4.64314 17.754 5.07198 17.7538 5.50084 17.7541C6.18042 17.7544 6.86 17.7528 7.53958 17.7508C9.47211 17.7455 11.4046 17.7427 13.3372 17.742C14.4046 17.7416 15.4719 17.7395 16.5393 17.7358C17.2132 17.7335 17.8871 17.7332 18.5611 17.7344C18.983 17.7347 19.4048 17.7331 19.8267 17.731C20.0205 17.7304 20.2143 17.7306 20.4081 17.7316C22.6694 17.7425 24.6418 17.2863 26.3033 15.6478C27.0637 14.841 27.6088 13.7613 27.8671 12.6875C27.8875 12.6034 27.908 12.5193 27.929 12.4326C28.2383 10.5555 27.8163 8.81088 26.7343 7.24998C25.7399 5.90167 24.2131 5.0153 22.5619 4.74026C20.7049 4.48326 19.0617 4.96628 17.5129 6.00478C16.1959 7.01482 15.3416 8.56209 15.0663 10.1953C15.0495 10.4429 15.0354 10.6908 15.0238 10.9387C14.9746 11.7352 14.778 12.4291 14.1848 12.9924C13.488 13.5106 12.8483 13.5621 12.0077 13.4805C11.3347 13.2825 10.9291 12.9155 10.535 12.3476C10.2921 11.8678 10.269 11.4175 10.2731 10.8891C10.2739 10.7621 10.2739 10.7621 10.2748 10.6326C10.328 8.04962 11.4049 5.52021 13.1405 3.62498C13.2278 3.52846 13.3152 3.43194 13.4051 3.33249C16.1713 0.418585 20.8229 -0.933248 24.6952 0.339828Z" fill="black"/>
</g>
<defs>
<clipPath id="clip0_255_375">
<rect width="58" height="58" fill="white"/>
</clipPath>
</defs>
</svg>
