<svg width="32" height="32" viewBox="0 0 32 32" fill="none" xmlns="http://www.w3.org/2000/svg">
<path d="M6.59214 0.00204222C6.67722 0.00182582 6.76229 0.00152805 6.84737 0.00115729C7.07823 0.000384535 7.30908 0.000758062 7.53994 0.00134191C7.79005 0.00176888 8.04016 0.00111002 8.29027 0.000596878C8.77909 -0.000232063 9.26789 -5.72703e-05 9.75671 0.000486926C10.1543 0.000911056 10.5518 0.000966436 10.9494 0.000763264C11.0345 0.000720236 11.0345 0.000720236 11.1213 0.00067634C11.2367 0.000616483 11.352 0.000555792 11.4673 0.000494273C12.5466 -3.85169e-05 13.626 0.000572639 14.7053 0.00158009C15.6299 0.00241635 16.5544 0.00227105 17.4789 0.0014081C18.5546 0.000404517 19.6303 1.28894e-05 20.706 0.000586725C20.8209 0.000646351 20.9358 0.000705201 21.0506 0.000763264C21.1072 0.000792144 21.1637 0.000821024 21.2219 0.000850779C21.6186 0.00101187 22.0153 0.000740752 22.412 0.000299098C22.896 -0.00022791 23.38 -7.97003e-05 23.8639 0.000913244C24.1105 0.00140255 24.357 0.00160246 24.6036 0.000978923C24.8299 0.000415227 25.0562 0.000737197 25.2826 0.00172351C25.4019 0.00202695 25.5212 0.00142584 25.6405 0.000776809C27.3759 0.0123797 28.8782 0.764915 30.1373 1.92923C31.3685 3.19 32.0075 4.8396 31.998 6.59214C31.9982 6.67721 31.9985 6.76229 31.9988 6.84737C31.9996 7.07823 31.9992 7.30908 31.9987 7.53994C31.9982 7.79005 31.9989 8.04016 31.9994 8.29027C32.0002 8.77909 32.0001 9.26789 31.9995 9.75671C31.9991 10.1543 31.999 10.5518 31.9992 10.9494C31.9993 11.0061 31.9993 11.0629 31.9993 11.1213C31.9994 11.2367 31.9994 11.352 31.9995 11.4673C32 12.5466 31.9994 13.626 31.9984 14.7053C31.9976 15.6299 31.9977 16.5544 31.9986 17.4789C31.9996 18.5546 32 19.6303 31.9994 20.706C31.9994 20.8209 31.9993 20.9358 31.9992 21.0506C31.9992 21.1072 31.9992 21.1637 31.9992 21.2219C31.999 21.6186 31.9993 22.0153 31.9997 22.412C32.0002 22.896 32.0001 23.38 31.9991 23.8639C31.9986 24.1105 31.9984 24.357 31.999 24.6036C31.9996 24.8299 31.9993 25.0562 31.9983 25.2826C31.998 25.4019 31.9986 25.5212 31.9992 25.6405C31.9876 27.3759 31.2351 28.8782 30.0708 30.1373C28.81 31.3685 27.1604 32.0075 25.4079 31.998C25.3228 31.9982 25.2377 31.9985 25.1526 31.9988C24.9218 31.9996 24.6909 31.9992 24.4601 31.9987C24.2099 31.9982 23.9598 31.9989 23.7097 31.9994C23.2209 32.0002 22.7321 32.0001 22.2433 31.9995C21.8457 31.9991 21.4482 31.999 21.0506 31.9992C20.9655 31.9993 20.9655 31.9993 20.8787 31.9993C20.7633 31.9994 20.648 31.9994 20.5327 31.9995C19.4534 32 18.374 31.9994 17.2947 31.9984C16.3701 31.9976 15.4456 31.9977 14.5211 31.9986C13.4454 31.9996 12.3697 32 11.294 31.9994C11.1791 31.9993 11.0642 31.9993 10.9494 31.9992C10.8928 31.9992 10.8363 31.9992 10.7781 31.9991C10.3814 31.999 9.9847 31.9993 9.58799 31.9997C9.10402 32.0002 8.62005 32.0001 8.13607 31.9991C7.88951 31.9986 7.64297 31.9984 7.39641 31.999C7.17008 31.9996 6.94377 31.9993 6.71744 31.9983C6.59814 31.998 6.47884 31.9986 6.35954 31.9992C4.62408 31.9876 3.12185 31.2351 1.86269 30.0708C0.631515 28.81 -0.00749217 27.1604 0.00204232 25.4079C0.00182592 25.3228 0.00152806 25.2377 0.0011573 25.1526C0.000384548 24.9218 0.000758172 24.6909 0.00134202 24.4601C0.00176899 24.2099 0.00111011 23.9598 0.000596973 23.7097C-0.000231969 23.2209 -5.71949e-05 22.7321 0.000487001 22.2433C0.000911132 21.8457 0.000966293 21.4482 0.000763121 21.0506C0.000734436 20.9939 0.00070603 20.9371 0.000676476 20.8787C0.000616619 20.7633 0.00055566 20.648 0.000494142 20.5327C-3.86473e-05 19.4534 0.000572605 18.374 0.00158005 17.2947C0.00241631 16.3701 0.00227114 15.4456 0.00140819 14.5211C0.000404612 13.4454 1.31403e-05 12.3697 0.000586976 11.294C0.000646602 11.1791 0.000705058 11.0642 0.000763121 10.9494C0.000792001 10.8928 0.000820962 10.8363 0.000850717 10.7781C0.00101181 10.3814 0.000740609 9.9847 0.000298955 9.58799C-0.000228053 9.10402 -7.93867e-05 8.62005 0.000913558 8.13607C0.00140287 7.88951 0.0016028 7.64297 0.000979256 7.39641C0.00041556 7.17008 0.000737513 6.94377 0.00172383 6.71744C0.00202727 6.59814 0.00142596 6.47884 0.000776927 6.35954C0.0123798 4.62408 0.764915 3.12185 1.92923 1.86269C3.19 0.631515 4.8396 -0.00749226 6.59214 0.00204222Z" fill="#1E1E1E"/>
<path d="M15.8315 0.022503C17.5287 0.0186412 19.2259 0.0147793 20.9745 0.0108004C21.7764 0.00824341 21.7764 0.00824341 22.5944 0.00563477C23.2506 0.00478907 23.2506 0.00478907 23.5584 0.00463193C23.772 0.00445851 23.9855 0.00376092 24.1991 0.00273483C24.4726 0.00143853 24.746 0.00106764 25.0195 0.00133113C25.1192 0.00127613 25.2189 0.000911986 25.3186 0.000180923C27.1812 -0.0128287 28.7518 0.676204 30.1177 1.92638C31.3618 3.18745 32.0075 4.83744 31.9979 6.5904C31.9981 6.67549 31.9984 6.76059 31.9988 6.84569C31.9996 7.07661 31.9992 7.30751 31.9986 7.53842C31.9982 7.7886 31.9988 8.03877 31.9994 8.28894C32.0002 8.77787 32 9.26679 31.9995 9.75572C31.999 10.1534 31.999 10.551 31.9992 10.9487C31.9992 11.0054 31.9993 11.0622 31.9993 11.1207C31.9993 11.236 31.9994 11.3514 31.9995 11.4667C32 12.5463 31.9994 13.6259 31.9984 14.7055C31.9975 15.6303 31.9977 16.555 31.9985 17.4798C31.9996 18.5557 32 19.6317 31.9994 20.7076C31.9993 20.8225 31.9993 20.9375 31.9992 21.0524C31.9992 21.1089 31.9991 21.1654 31.9991 21.2236C31.9989 21.6204 31.9992 22.0172 31.9997 22.414C32.0002 22.8981 32 23.3822 31.999 23.8663C31.9985 24.1129 31.9983 24.3595 31.999 24.6062C31.9995 24.8325 31.9992 25.0589 31.9982 25.2853C31.9979 25.4046 31.9985 25.5239 31.9992 25.6433C31.9875 27.3792 31.227 28.8817 30.0504 30.1412C28.7156 31.4314 27.0141 32.0133 25.1733 31.9998C25.0707 31.9997 24.968 31.9997 24.8654 31.9999C24.5899 31.9999 24.3144 31.9988 24.039 31.9975C23.7499 31.9963 23.4608 31.9962 23.1717 31.996C22.6258 31.9954 22.0798 31.9939 21.5338 31.992C20.795 31.9895 20.0562 31.9885 19.3174 31.9874C18.1555 31.9857 16.9935 31.9819 15.8315 31.9785C15.8315 28.8684 15.8315 25.7583 15.8315 22.554C19.2484 22.5384 19.2484 22.5384 20.3231 22.5354C20.6439 22.5333 20.6439 22.5333 20.9647 22.5309C21.1065 22.53 21.2482 22.5296 21.3899 22.5295C22.5147 22.5396 22.5147 22.5396 23.5874 22.2419C23.6739 22.2056 23.6739 22.2056 23.7621 22.1685C24.7421 21.7374 25.3329 20.9311 25.7294 19.9721C26.0087 19.1503 25.9428 18.1635 25.6052 17.3736C25.5824 17.3188 25.5595 17.264 25.536 17.2076C25.0885 16.236 24.2901 15.6497 23.3121 15.2535C22.9195 15.1228 22.5356 15.1095 22.1253 15.1072C22.0455 15.1067 22.0455 15.1067 21.9641 15.1062C21.6227 15.11 21.3313 15.1637 21.0021 15.2515C20.9189 15.2515 20.8357 15.2515 20.7499 15.2515C20.7323 15.1934 20.7146 15.1352 20.6965 15.0753C20.2678 13.7071 19.4948 12.6145 18.2013 11.9324C17.4117 11.5307 16.7597 11.4507 15.8315 11.3195C15.8315 7.59146 15.8315 3.86347 15.8315 0.022503Z" fill="black"/>
<path d="M13.6344 9.38562C14.1097 9.7837 14.4583 10.2731 14.7656 10.8097C14.7873 10.8475 14.809 10.8853 14.8314 10.9243C14.9285 11.0997 14.9825 11.2046 14.9825 11.4091C15.0209 11.399 15.0594 11.389 15.0989 11.3787C16.4595 11.1514 17.8216 11.4979 18.9493 12.2866C19.8494 12.9931 20.4871 13.9328 20.8087 15.0446C20.8087 15.1273 20.8087 15.21 20.8087 15.2953C20.848 15.2817 20.8873 15.2681 20.9278 15.2542C21.8004 14.9909 22.7552 14.9982 23.5978 15.358C23.6515 15.38 23.7052 15.4019 23.7605 15.4246C24.7473 15.8736 25.3648 16.7107 25.7652 17.7002C26.0399 18.5259 25.9746 19.516 25.6432 20.3098C25.6215 20.3641 25.5997 20.4184 25.5773 20.4743C25.1412 21.4546 24.3127 22.1186 23.3342 22.4946C22.7827 22.669 22.2327 22.6555 21.6615 22.6533C21.5483 22.6536 21.4352 22.6539 21.322 22.6543C21.0163 22.6552 20.7106 22.6549 20.405 22.6543C20.0841 22.6538 19.7632 22.6542 19.4423 22.6545C18.9036 22.6549 18.3649 22.6544 17.8261 22.6535C17.2045 22.6525 16.583 22.6528 15.9614 22.6539C15.4263 22.6547 14.8913 22.6548 14.3563 22.6543C14.0373 22.6541 13.7184 22.654 13.3994 22.6546C13.0994 22.6552 12.7995 22.6548 12.4995 22.6537C12.3899 22.6535 12.2802 22.6535 12.1706 22.654C11.1987 22.6573 10.4261 22.5442 9.68216 21.8585C9.05866 21.2018 8.80833 20.4107 8.82218 19.5096C8.87828 19.0398 9.03944 18.545 9.34223 18.1786C9.25343 18.1512 9.25343 18.1512 9.16283 18.1233C8.40735 17.8838 7.78644 17.5634 7.1729 17.0504C7.07894 16.9786 7.07894 16.9786 6.98309 16.9054C6.24921 16.2264 5.82988 15.3691 5.5614 14.4178C5.54606 14.3666 5.53072 14.3155 5.51492 14.2628C5.20115 13.0134 5.50367 11.7334 6.11735 10.6388C6.26179 10.3961 6.43185 10.1808 6.61508 9.96738C6.66237 9.90403 6.70967 9.84069 6.75841 9.77542C8.60003 7.73973 11.5577 7.78134 13.6344 9.38562Z" fill="#FEFEFE"/>
<path d="M15.8315 11.3274C17.2345 11.3274 18.473 11.8361 19.4749 12.8198C20.0697 13.4332 20.7352 14.404 20.7352 15.2844C20.7751 15.2708 20.815 15.2572 20.8561 15.2432C21.7412 14.9793 22.7096 14.9866 23.5643 15.3472C23.6187 15.3692 23.6732 15.3912 23.7293 15.4139C24.7302 15.8639 25.3566 16.7027 25.7627 17.6942C26.0413 18.5216 25.9751 19.5137 25.6389 20.3091C25.6169 20.3635 25.5948 20.4179 25.5721 20.474C25.1516 21.4076 24.3717 22.0555 23.4385 22.4446C22.9659 22.6069 22.5312 22.6599 22.0337 22.6545C21.965 22.6545 21.8964 22.6545 21.8257 22.6545C21.606 22.6544 21.3864 22.653 21.1667 22.6515C21.0301 22.6512 20.8935 22.651 20.7569 22.6509C20.2533 22.6499 19.7497 22.6473 19.246 22.6448C18.1193 22.641 16.9925 22.6371 15.8315 22.6331C15.8315 18.9022 15.8315 15.1713 15.8315 11.3274Z" fill="#F1F1F2"/>
<path d="M13.4957 9.38666C13.9618 9.78403 14.3049 10.2734 14.6078 10.8081C14.6292 10.8454 14.6506 10.8827 14.6726 10.9212C14.7861 11.1287 14.8211 11.2296 14.8211 11.4746C14.7585 11.4929 14.6959 11.5112 14.6314 11.53C13.8637 11.7609 13.2475 12.0763 12.6273 12.6039C12.5767 12.644 12.526 12.6841 12.4738 12.7255C11.6695 13.414 11.1098 14.6178 10.982 15.678C10.9667 15.9158 10.9568 16.1536 10.9477 16.3917C10.9438 16.4878 10.9438 16.4878 10.9398 16.586C10.9333 16.7434 10.9271 16.9008 10.9211 17.0582C10.8578 17.0879 10.7944 17.1176 10.7292 17.1482C10.2411 17.3843 9.84876 17.6031 9.48331 18.025C9.3029 18.1477 9.18705 18.1364 8.97774 18.0965C8.76698 18.04 8.57141 17.962 8.37309 17.8699C8.33091 17.8506 8.28873 17.8312 8.24528 17.8113C7.8615 17.6288 7.53123 17.3962 7.20384 17.121C7.16472 17.0902 7.1256 17.0593 7.0853 17.0276C6.28192 16.3693 5.8339 15.4167 5.55851 14.4233C5.54343 14.3721 5.52834 14.3209 5.51281 14.2681C5.20432 13.0176 5.50175 11.7365 6.10511 10.641C6.24711 10.398 6.41431 10.1825 6.59446 9.96894C6.64096 9.90554 6.68746 9.84214 6.73538 9.77681C8.54602 7.73931 11.454 7.78095 13.4957 9.38666Z" fill="#FEE984"/>
</svg>
