<svg width="58" height="58" viewBox="0 0 58 58" fill="none" xmlns="http://www.w3.org/2000/svg">
<g clip-path="url(#clip0_255_426)">
<path d="M32.7383 20.0508C33.3927 20.1868 34.026 20.3534 34.6644 20.5505C36.2307 21.0315 37.8052 21.3746 39.4219 21.6367C39.5132 21.6518 39.6045 21.6668 39.6986 21.6823C44.147 22.3773 48.7954 21.6917 53.0413 20.3287C53.446 20.2004 53.8392 20.1041 54.2617 20.0508C54.3515 20.7684 54.3957 21.4714 54.402 22.1943C54.4031 22.2996 54.4042 22.405 54.4054 22.5135C54.4253 24.9055 54.384 27.2118 53.9219 29.5664C53.9007 29.6777 53.8795 29.7889 53.8576 29.9035C52.8933 34.8409 50.723 39.3943 47.6914 43.3867C48.5713 45.0625 49.493 46.7156 50.4102 48.3711C50.4474 48.4383 50.4846 48.5055 50.523 48.5748C51.1939 49.7857 51.8649 50.9966 52.5444 52.2027C52.6506 52.3915 52.6506 52.3915 52.7589 52.5841C52.8917 52.8199 53.0248 53.0555 53.1582 53.291C53.4736 53.851 53.7808 54.4148 54.0763 54.9857C54.132 55.093 54.1877 55.2004 54.2451 55.311C54.4819 55.8762 54.4951 56.4064 54.2954 56.9845C54.0461 57.4819 53.7445 57.7758 53.2422 58C52.0492 58.1889 51.0581 57.7332 49.9898 57.2774C49.8106 57.2032 49.6313 57.1293 49.4519 57.0556C48.9832 56.8626 48.5155 56.667 48.0482 56.4705C47.2982 56.1553 46.5473 55.8424 45.795 55.5326C45.5335 55.4241 45.2729 55.3136 45.0123 55.2029C44.8518 55.1363 44.6914 55.0699 44.5309 55.0036C44.4592 54.9724 44.3875 54.9413 44.3137 54.9092C43.5396 54.5945 43.0022 54.8258 42.2616 55.1322C42.1861 55.1631 42.1107 55.1941 42.033 55.226C41.8701 55.2929 41.7073 55.3601 41.5446 55.4275C41.2861 55.5345 41.0273 55.6404 40.7682 55.7459C40.032 56.0459 39.2963 56.3469 38.5618 56.6511C38.1115 56.8374 37.6604 57.0216 37.2087 57.2045C37.0377 57.2742 36.867 57.3447 36.6967 57.416C34.6839 58.2583 34.6839 58.2583 33.6362 57.9254C33.205 57.7163 32.9082 57.4151 32.7016 56.9827C32.462 56.2666 32.5548 55.7098 32.8751 55.0276C33.0826 54.6149 33.3052 54.2114 33.5313 53.8086C33.5835 53.715 33.6357 53.6214 33.6895 53.5249C33.9885 52.9904 34.2907 52.4577 34.5942 51.9257C35.0353 51.1507 35.4662 50.3702 35.896 49.5889C36.0489 49.311 36.2019 49.0331 36.3549 48.7552C36.3929 48.6862 36.4309 48.6172 36.47 48.5461C36.7394 48.057 37.01 47.5687 37.2815 47.0807C37.3383 46.9786 37.3383 46.9786 37.3963 46.8744C37.5754 46.5526 37.7546 46.2309 37.9339 45.9093C38.3999 45.0725 38.8565 44.2311 39.3086 43.3867C39.2276 43.2848 39.1465 43.1829 39.063 43.0779C35.8813 39.0009 33.8584 34.076 32.9649 29C32.9479 28.9101 32.931 28.8202 32.9135 28.7276C32.6013 27.0144 32.595 25.3054 32.5967 23.5696C32.5968 23.4539 32.5969 23.3383 32.5969 23.2191C32.5977 22.8841 32.5995 22.5492 32.602 22.2142C32.6025 22.1141 32.603 22.014 32.6035 21.9109C32.6106 21.2834 32.6599 20.6735 32.7383 20.0508Z" fill="black"/>
<path d="M24.2422 -4.54411e-05C24.8063 0.261875 25.068 0.599785 25.375 1.13277C25.4325 1.48531 25.4325 1.48531 25.4338 1.86819C25.4354 2.01401 25.437 2.15982 25.4386 2.31006C25.4381 2.47022 25.4375 2.63039 25.4369 2.79056C25.4378 2.9603 25.439 3.13004 25.4404 3.29978C25.4436 3.75941 25.4439 4.21901 25.4438 4.67865C25.4442 5.15943 25.4471 5.6402 25.4497 6.12098C25.4543 7.03087 25.4566 7.94075 25.4581 8.85065C25.4599 9.88676 25.4643 10.9229 25.4688 11.959C25.4782 14.0898 25.4843 16.2206 25.4883 18.3515C25.5742 18.3976 25.6602 18.4438 25.7487 18.4913C25.9175 18.5825 25.9175 18.5825 26.0897 18.6755C26.2014 18.7357 26.313 18.7958 26.4281 18.8578C27.6506 19.5499 28.5145 20.6829 28.9213 22.0177C29.2056 23.505 29.1411 25.0713 28.3469 26.3856C27.7246 27.292 27.0503 27.9382 26.0817 28.4561C25.9703 28.5159 25.859 28.5758 25.7442 28.6374C25.6175 28.7047 25.6175 28.7047 25.4883 28.7734C25.4879 28.9243 25.4879 28.9243 25.4875 29.0782C25.4808 31.532 25.4722 33.9858 25.4616 36.4396C25.4565 37.6263 25.452 38.8129 25.4491 39.9996C25.4464 41.0345 25.4427 42.0694 25.4375 43.1044C25.4348 43.6518 25.4326 44.1992 25.4319 44.7466C25.4312 45.2631 25.429 45.7796 25.4255 46.2961C25.4245 46.4844 25.4241 46.6728 25.4243 46.8611C25.4266 50.0653 24.3544 52.7012 22.1465 55.0476C19.8325 57.3087 16.911 58.0559 13.7615 58.0238C10.8643 57.9564 8.29195 56.526 6.29332 54.4807C4.59562 52.5312 3.61277 50.073 3.60497 47.4889C3.60422 47.3805 3.60348 47.2721 3.60271 47.1604C3.60049 46.8039 3.59916 46.4473 3.59803 46.0908C3.59756 45.9687 3.5971 45.8465 3.59663 45.7207C3.59427 45.075 3.59265 44.4293 3.59158 43.7836C3.59033 43.1171 3.58642 42.4507 3.58193 41.7842C3.57897 41.271 3.57802 40.7578 3.57762 40.2446C3.57707 39.9988 3.57575 39.7531 3.57365 39.5073C3.57089 39.1638 3.57099 38.8204 3.57178 38.4768C3.57033 38.3757 3.56888 38.2745 3.56738 38.1702C3.57258 37.5487 3.66498 37.1965 4.07814 36.7031C4.49484 36.3169 4.81947 36.2161 5.3738 36.1933C6.29864 36.2321 6.7673 36.6389 7.38587 37.2876C7.58683 37.493 7.79575 37.6783 8.01467 37.8642C8.40077 38.1964 8.76164 38.5496 9.11916 38.9121C9.46737 39.265 9.81777 39.6097 10.1953 39.9316C10.7956 40.444 11.3407 41.0128 11.8946 41.5742C11.9957 41.6708 12.0969 41.7675 12.2012 41.8671C12.7066 42.3992 12.7377 42.818 12.7234 43.5349C12.6558 44.1098 12.3588 44.4072 11.9441 44.7814C11.4728 45.1078 10.9826 45.1684 10.4219 45.0859C9.9434 44.8823 9.58468 44.6377 9.20412 44.2858C9.10774 44.1969 9.01137 44.108 8.91207 44.0164C8.50243 43.6241 8.10267 43.2227 7.70668 42.8167C7.49404 42.5882 7.49404 42.5882 7.25002 42.4804C7.26076 43.1108 7.2728 43.7411 7.28597 44.3714C7.29026 44.5851 7.29422 44.7987 7.29781 45.0124C7.34323 47.6828 7.52784 50.1351 9.45369 52.1775C11.0093 53.6401 12.7366 54.2351 14.8454 54.2079C15.7006 54.1761 16.4285 54.0381 17.2188 53.6953C17.3179 53.6542 17.4171 53.6132 17.5192 53.5709C19.3292 52.7482 20.4832 51.2854 21.2119 49.4755C21.6674 48.1118 21.6696 46.6699 21.6625 45.2474C21.6624 45.0664 21.6624 44.8853 21.6626 44.7043C21.6626 44.2185 21.6613 43.7327 21.6597 43.2469C21.6583 42.7372 21.6582 42.2274 21.6579 41.7176C21.6572 40.7547 21.6553 39.7919 21.6531 38.8291C21.6505 37.7319 21.6493 36.6347 21.6481 35.5375C21.6458 33.2828 21.6418 31.0281 21.6367 28.7734C21.5508 28.7273 21.4649 28.6811 21.3763 28.6336C21.2075 28.5424 21.2075 28.5424 21.0353 28.4494C20.9236 28.3893 20.812 28.3291 20.697 28.2671C19.4745 27.575 18.6105 26.442 18.2038 25.1072C17.9194 23.6199 17.9839 22.0537 18.7782 20.7393C19.4004 19.8329 20.0747 19.1867 21.0433 18.6688C21.1547 18.609 21.2661 18.5491 21.3808 18.4875C21.5075 18.4202 21.5075 18.4202 21.6367 18.3515C21.6369 18.2634 21.6371 18.1753 21.6372 18.0845C21.6414 15.9402 21.6481 13.7959 21.6576 11.6516C21.6621 10.6146 21.6657 9.57766 21.6674 8.54068C21.6689 7.63682 21.672 6.73298 21.6769 5.82913C21.6795 5.35057 21.6812 4.87204 21.6811 4.39347C21.681 3.94287 21.6831 3.49233 21.6867 3.04174C21.6877 2.87653 21.6879 2.71131 21.6872 2.5461C21.6865 2.32013 21.6888 2.09415 21.6912 1.86819C21.6919 1.67867 21.6919 1.67867 21.6925 1.48531C21.7845 0.921706 22.0799 0.570176 22.4863 0.184037C23.0714 -0.0876159 23.6079 -0.0854386 24.2422 -4.54411e-05ZM22.0474 22.6137C21.7977 23.1323 21.773 23.5631 21.8633 24.1289C22.1272 24.677 22.448 24.9978 22.9961 25.2617C23.5619 25.352 23.9927 25.3273 24.5112 25.0776C24.9173 24.7102 25.2159 24.4161 25.3051 23.8572C25.3341 23.2133 25.2545 22.8092 24.8086 22.3164C24.3158 21.8705 23.9117 21.7909 23.2678 21.8199C22.7089 21.9091 22.4147 22.2077 22.0474 22.6137Z" fill="black"/>
<path d="M44.1797 -6.18398e-05C45.1342 0.440477 45.8902 1.46897 46.5586 2.26556C46.6368 2.35844 46.6368 2.35844 46.7166 2.45319C49.8118 6.14354 51.9807 10.3101 53.2877 14.9423C53.3511 15.1642 53.419 15.3849 53.4873 15.6053C53.5728 15.9368 53.6026 16.1994 53.582 16.539C51.617 17.3329 49.5655 17.9357 47.4648 18.2382C47.3448 18.2557 47.3448 18.2557 47.2224 18.2736C42.8286 18.8814 37.4603 18.5602 33.418 16.539C33.4814 15.7052 33.6709 14.9567 33.9207 14.1601C33.9607 14.0319 34.0007 13.9038 34.042 13.7717C35.5547 9.03446 38.0327 4.86712 41.3972 1.21771C41.4935 1.11237 41.4935 1.11237 41.5918 1.00489C42.3868 0.157651 43.0045 -0.155893 44.1797 -6.18398e-05ZM43.9252 11.6201C43.6202 12.0887 43.5341 12.4632 43.6133 13.0273C43.7712 13.5243 43.98 13.9221 44.4204 14.2167C44.9275 14.461 45.4426 14.4748 45.9922 14.3867C46.5011 14.1511 46.7958 13.8508 47.0462 13.3583C47.2133 12.8964 47.2133 12.4785 47.0462 12.0166C46.7955 11.5235 46.5034 11.2206 45.9922 10.9882C45.1564 10.8674 44.4796 10.9181 43.9252 11.6201Z" fill="black"/>
</g>
<defs>
<clipPath id="clip0_255_426">
<rect width="58" height="58" fill="white"/>
</clipPath>
</defs>
</svg>
