<svg width="58" height="58" viewBox="0 0 58 58" fill="none" xmlns="http://www.w3.org/2000/svg">
<g clip-path="url(#clip0_255_379)">
<path d="M28.9788 -0.0637665C29.0893 -0.0685854 29.1998 -0.0734042 29.3137 -0.0783691C30.103 0.0905622 30.5663 0.60558 30.9944 1.26508C31.1312 1.49141 31.2664 1.71876 31.4001 1.94698C31.5482 2.19161 31.6966 2.43602 31.8453 2.68021C31.9189 2.80143 31.9924 2.92265 32.0682 3.04754C32.5979 3.90416 33.1795 4.72652 33.7578 5.55073C33.8054 5.61915 33.853 5.68756 33.9021 5.75805C34.6546 6.83884 35.4541 7.88311 36.2549 8.92837C36.5865 9.36163 36.9143 9.79749 37.2395 10.2356C37.8026 10.9941 38.3859 11.7316 38.9854 12.4615C39.4655 13.0484 39.9234 13.6493 40.3751 14.2582C40.7994 14.8294 41.2345 15.3913 41.6733 15.9514C43.6017 18.4229 45.3945 20.989 47.0117 23.6757C47.073 23.776 47.073 23.776 47.1356 23.8782C48.4171 25.9873 49.4378 28.3132 50.0703 30.6992C50.0924 30.7823 50.1146 30.8655 50.1373 30.9511C50.6011 32.7302 50.797 34.465 50.7925 36.2995C50.7924 36.4413 50.7924 36.4413 50.7923 36.586C50.7877 38.1363 50.6781 39.6126 50.2969 41.121C50.2714 41.2235 50.2459 41.326 50.2197 41.4316C49.5363 44.1167 48.4276 46.6931 46.7851 48.9375C46.7021 49.0527 46.619 49.1679 46.5334 49.2866C46.011 49.9959 45.4443 50.6566 44.8452 51.3022C44.7816 51.3709 44.718 51.4396 44.6524 51.5103C41.5186 54.8285 37.2 56.9637 32.7383 57.7734C32.6358 57.7934 32.5334 57.8134 32.4278 57.834C31.3095 58.0326 30.2029 58.045 29.0708 58.0424C28.9706 58.0424 28.8704 58.0423 28.7672 58.0422C27.1817 58.0378 25.6709 57.9414 24.1289 57.5468C24.0267 57.5213 23.9246 57.4959 23.8193 57.4696C21.1338 56.7863 18.5572 55.6778 16.3125 54.0351C16.1973 53.952 16.0821 53.8689 15.9634 53.7833C15.2541 53.261 14.5933 52.6943 13.9477 52.0952C13.8791 52.0316 13.8104 51.9679 13.7396 51.9024C10.4222 48.7692 8.28477 44.4496 7.47655 39.9882C7.45655 39.8844 7.43654 39.7805 7.41593 39.6735C7.22619 38.595 7.20459 37.5328 7.20751 36.4411C7.20765 36.3463 7.20779 36.2514 7.20793 36.1537C7.22163 32.6453 8.08863 29.4301 9.6289 26.2812C9.70434 26.123 9.77971 25.9647 9.85502 25.8064C10.813 23.8179 12.0091 21.9828 13.2539 20.164C13.3114 20.0799 13.369 19.9958 13.4282 19.9091C14.2438 18.7229 15.1085 17.5766 15.985 16.435C16.3725 15.9302 16.754 15.4212 17.1338 14.9106C17.6184 14.2607 18.1183 13.625 18.6274 12.9941C19.1125 12.3915 19.5832 11.7787 20.0514 11.163C20.4323 10.6625 20.8167 10.1652 21.2045 9.6701C23.3422 6.9393 25.3052 4.10028 27.1348 1.15445C27.6303 0.413285 28.0475 -0.0454579 28.9788 -0.0637665ZM28.8867 5.43745C28.7168 5.64196 28.7168 5.64196 28.5447 5.91093C28.4763 6.0129 28.408 6.11486 28.3375 6.21991C28.2274 6.38633 28.2274 6.38633 28.115 6.55611C27.96 6.78664 27.8048 7.01704 27.6495 7.2473C27.5326 7.42061 27.5326 7.42061 27.4134 7.59743C26.4357 9.03521 25.3813 10.413 24.3075 11.7797C24.057 12.0995 23.8097 12.4217 23.5625 12.7441C23.119 13.3219 22.6721 13.8971 22.2244 14.4716C21.6427 15.2182 21.0655 15.9681 20.492 16.721C20.1133 17.2176 19.7304 17.7106 19.3449 18.2019C18.0519 19.8523 16.8327 21.5483 15.6876 23.3047C15.5756 23.4765 15.4631 23.6481 15.3501 23.8193C12.8767 27.5764 10.931 31.7257 10.9458 36.2995C10.9459 36.3785 10.9461 36.4576 10.9462 36.539C10.9691 41.4496 13.0562 45.772 16.4258 49.2773C16.7157 49.5585 17.0176 49.8169 17.332 50.0703C17.4389 50.1574 17.5458 50.2446 17.6559 50.3344C19.7068 51.9772 22.0404 53.1439 24.582 53.8085C24.6731 53.8325 24.7642 53.8565 24.858 53.8812C29.3777 55.0125 34.3201 54.1406 38.2891 51.7695C39.9739 50.751 41.582 49.4544 42.8203 47.9179C42.9075 47.811 42.9947 47.7041 43.0845 47.594C46.2057 43.6974 47.4712 38.8903 46.9582 33.9454C46.8936 33.4592 46.793 32.9867 46.6719 32.5117C46.6506 32.4255 46.6293 32.3394 46.6073 32.2506C45.8339 29.2128 44.3615 26.364 42.6215 23.7727C42.4958 23.5853 42.3718 23.3967 42.2481 23.208C41.112 21.4791 39.8831 19.8238 38.6221 18.1846C38.4163 17.9166 38.2115 17.6479 38.0072 17.3789C37.3739 16.5457 36.7316 15.7216 36.0745 14.9071C35.6066 14.3247 35.1579 13.7291 34.7122 13.1296C34.3498 12.6431 33.9796 12.1641 33.602 11.6892C32.0713 9.75696 30.6094 7.74732 29.2859 5.66711C29.2289 5.59133 29.172 5.51554 29.1133 5.43745C29.0385 5.43745 28.9637 5.43745 28.8867 5.43745Z" fill="black"/>
<path d="M38.7421 25.3751C39.2955 25.632 39.618 25.9546 39.8749 26.5079C39.9706 27.2188 39.9847 27.7572 39.5664 28.3598C39.297 28.7084 38.9859 29.0139 38.6737 29.3239C38.5987 29.3992 38.5237 29.4746 38.4464 29.5523C38.1958 29.8038 37.9444 30.0545 37.6929 30.3052C37.5128 30.4857 37.3326 30.6662 37.1525 30.8468C36.6639 31.3364 36.1746 31.8254 35.6851 32.3141C35.173 32.8256 34.6615 33.3377 34.1499 33.8496C33.236 34.764 32.3215 35.6778 31.4067 36.5914C30.5773 37.4198 29.7485 38.2488 28.9202 39.0782C27.9578 40.0418 26.995 41.005 26.0316 41.9677C25.5218 42.4771 25.0122 42.9867 24.5029 43.4967C24.0244 43.9759 23.5453 44.4545 23.0658 44.9327C22.8897 45.1085 22.7138 45.2845 22.5381 45.4607C22.2987 45.7007 22.0587 45.94 21.8184 46.1792C21.7486 46.2495 21.6788 46.3197 21.6069 46.3921C21.5424 46.4561 21.4778 46.5201 21.4113 46.586C21.356 46.6413 21.3007 46.6965 21.2437 46.7535C20.7307 47.1825 20.2338 47.1731 19.5879 47.1605C18.9873 47.0961 18.7095 46.8103 18.309 46.3888C18.043 45.8158 18.0149 45.2541 18.1249 44.6329C18.4551 44.0707 18.8652 43.6339 19.3262 43.1763C19.4387 43.0633 19.4387 43.0633 19.5535 42.948C19.8041 42.6964 20.0555 42.4458 20.3069 42.195C20.4871 42.0146 20.6672 41.834 20.8473 41.6534C21.336 41.1638 21.8253 40.6748 22.3148 40.1861C22.8268 39.6746 23.3383 39.1626 23.8499 38.6506C24.7639 37.7362 25.6784 36.8224 26.5932 35.9088C27.4225 35.0804 28.2513 34.2515 29.0797 33.4221C30.0421 32.4584 31.0049 31.4952 31.9682 30.5325C32.478 30.0231 32.9877 29.5135 33.4969 29.0035C33.9754 28.5243 34.4545 28.0457 34.934 27.5675C35.1101 27.3917 35.286 27.2157 35.4617 27.0395C35.7011 26.7995 35.9412 26.5602 36.1815 26.321C36.2513 26.2508 36.321 26.1805 36.3929 26.1081C36.4575 26.0441 36.522 25.9801 36.5885 25.9143C36.6715 25.8313 36.6715 25.8313 36.7562 25.7467C37.343 25.256 38.0129 25.2969 38.7421 25.3751Z" fill="black"/>
<path d="M37.0429 40.4414C37.1816 40.5152 37.1816 40.5152 37.323 40.5905C38.4584 41.2741 39.1953 42.2698 39.6484 43.5C39.6896 43.602 39.7308 43.7041 39.7732 43.8093C40.145 45.1624 39.9638 46.6926 39.3086 47.9179C39.2593 48.0104 39.2101 48.1028 39.1594 48.198C38.4759 49.3334 37.4802 50.0703 36.25 50.5234C36.1479 50.5646 36.0458 50.6058 35.9407 50.6482C34.5876 51.02 33.0573 50.8388 31.832 50.1836C31.7396 50.1343 31.6471 50.0851 31.5519 50.0344C30.4165 49.3509 29.6797 48.3552 29.2265 47.125C29.1853 47.0229 29.1442 46.9208 29.1017 46.8157C28.7299 45.4626 28.9111 43.9323 29.5664 42.707C29.6156 42.6146 29.6648 42.5221 29.7155 42.4269C30.3991 41.2915 31.3948 40.5547 32.625 40.1015C32.727 40.0603 32.8291 40.0192 32.9343 39.9767C34.2874 39.6049 35.8176 39.7861 37.0429 40.4414ZM32.9223 44.3637C32.6726 44.8823 32.6479 45.3131 32.7382 45.8789C33.0022 46.427 33.3229 46.7478 33.8711 47.0117C34.4368 47.102 34.8676 47.0773 35.3862 46.8276C35.7922 46.4603 36.0908 46.1661 36.18 45.6072C36.2091 44.9633 36.1295 44.5592 35.6836 44.0664C35.1907 43.6205 34.7866 43.5409 34.1428 43.5699C33.5839 43.6591 33.2897 43.9577 32.9223 44.3637Z" fill="black"/>
<path d="M26.1679 22.3164C26.3066 22.3902 26.3066 22.3902 26.448 22.4655C27.5834 23.1491 28.3203 24.1448 28.7734 25.375C28.8146 25.477 28.8558 25.5791 28.8982 25.6843C29.27 27.0374 29.0888 28.5676 28.4336 29.7929C28.3843 29.8854 28.3351 29.9778 28.2844 30.073C27.6009 31.2084 26.6052 31.9453 25.375 32.3984C25.2729 32.4396 25.1708 32.4808 25.0657 32.5232C23.7126 32.895 22.1823 32.7138 20.957 32.0586C20.8646 32.0093 20.7721 31.9601 20.6769 31.9094C19.5415 31.2259 18.8047 30.2302 18.3515 29C18.3103 28.8979 18.2692 28.7958 18.2267 28.6907C17.8549 27.3376 18.0361 25.8073 18.6914 24.582C18.7406 24.4896 18.7898 24.3971 18.8405 24.3019C19.5241 23.1665 20.5198 22.4297 21.75 21.9765C21.852 21.9353 21.9541 21.8942 22.0593 21.8517C23.4124 21.4799 24.9426 21.6611 26.1679 22.3164ZM22.0473 26.2387C21.7976 26.7573 21.7729 27.1881 21.8632 27.7539C22.1272 28.302 22.4479 28.6228 22.9961 28.8867C23.5618 28.977 23.9926 28.9523 24.5112 28.7026C24.9172 28.3353 25.2158 28.0411 25.305 27.4822C25.3341 26.8383 25.2545 26.4342 24.8086 25.9414C24.3157 25.4955 23.9116 25.4159 23.2678 25.4449C22.7089 25.5341 22.4147 25.8327 22.0473 26.2387Z" fill="black"/>
</g>
<defs>
<clipPath id="clip0_255_379">
<rect width="58" height="58" fill="white"/>
</clipPath>
</defs>
</svg>
